<?xml version="1.0" standalone="no"?>
<!DOCTYPE svg PUBLIC "-//W3C//DTD SVG 20010904//EN"
 "http://www.w3.org/TR/2001/REC-SVG-20010904/DTD/svg10.dtd">
<svg version="1.0" xmlns="http://www.w3.org/2000/svg"
 width="500.000000pt" height="500.000000pt" viewBox="0 0 500.000000 500.000000"
 preserveAspectRatio="xMidYMid meet">

<g transform="translate(0.000000,500.000000) scale(0.100000,-0.100000)"
fill="#000000" stroke="none">
<path d="M1456 2978 c37 -115 142 -426 170 -505 l25 -72 79 -3 79 -3 15 40 c8
22 55 163 105 312 51 150 94 280 98 288 5 14 -4 16 -62 13 l-67 -3 -24 -65
c-12 -36 -48 -145 -79 -244 -31 -98 -60 -174 -65 -170 -4 5 -38 104 -75 219
-95 298 -75 265 -155 265 l-68 0 24 -72z"/>
<path d="M3345 3005 c-5 -2 -27 -6 -47 -10 -38 -6 -38 -6 -38 -55 l0 -50 -39
0 -38 0 1 -47 c1 -48 1 -48 39 -51 l37 -3 0 -125 c0 -147 12 -202 50 -239 33
-31 96 -42 175 -31 54 9 60 19 45 76 -12 44 -8 43 -77 24 -14 -4 -28 1 -42 15
-19 19 -21 32 -21 151 l0 130 70 0 70 0 0 50 0 50 -70 0 -70 0 0 60 c0 61 -6
68 -45 55z"/>
<path d="M1065 2886 c-46 -20 -94 -64 -118 -110 -18 -33 -22 -58 -22 -131 0
-76 4 -97 25 -139 43 -85 104 -117 221 -117 83 0 140 22 174 67 32 42 29 53
-19 78 l-36 19 -31 -29 c-26 -25 -38 -29 -89 -29 -50 0 -64 4 -85 25 -13 14
-27 40 -31 57 l-6 32 163 3 164 3 -1 75 c-1 108 -25 150 -109 190 -47 23 -154
26 -200 6z m150 -92 c18 -7 45 -54 45 -79 0 -13 -17 -15 -106 -15 -93 0 -105
2 -100 16 3 9 6 19 6 23 0 5 12 20 26 35 21 20 37 26 70 26 23 0 50 -3 59 -6z"/>
<path d="M2222 2879 c-95 -47 -140 -141 -129 -270 9 -110 62 -184 148 -210 50
-14 162 -12 200 4 38 16 99 74 99 94 0 7 -19 22 -41 34 l-41 21 -28 -27 c-69
-66 -210 -25 -210 61 l0 24 163 2 162 3 -2 77 c-2 81 -15 118 -55 155 -60 56
-186 71 -266 32z m168 -89 c16 -8 40 -58 40 -81 0 -5 -47 -9 -105 -9 -78 0
-105 3 -105 13 1 22 27 60 51 73 28 16 93 18 119 4z"/>
<path d="M2865 2889 c-11 -6 -35 -25 -52 -42 l-33 -31 0 37 0 37 -60 0 -60 0
0 -245 0 -245 60 0 60 0 0 128 c1 153 10 205 41 238 20 22 31 24 78 22 77 -4
81 -13 81 -220 l0 -168 65 0 65 0 0 148 c0 211 -10 267 -54 311 -33 33 -41 36
-103 38 -39 2 -77 -1 -88 -8z"/>
<path d="M3755 2888 c-159 -57 -207 -300 -85 -432 45 -49 95 -68 179 -67 111
1 178 40 218 128 22 47 25 65 21 141 -3 79 -6 93 -35 138 -45 70 -113 104
-203 103 -36 0 -78 -5 -95 -11z m161 -113 c34 -23 47 -67 42 -151 -3 -71 -6
-78 -36 -105 -73 -65 -176 -17 -189 88 -8 69 3 116 33 153 23 26 32 30 78 30
29 0 61 -6 72 -15z"/>
</g>
</svg>
